<svg width="104" height="29" viewBox="0 0 104 29" fill="none" xmlns="http://www.w3.org/2000/svg">
<path d="M9.048 2.072C6.12 2.216 4.776 5.792 4.056 8.144C3.408 10.184 3.096 12.296 2.952 14.432C2.376 14.408 1.8 14.384 1.248 14.336C0.216 14.288 0.216 15.872 1.248 15.944C1.776 15.968 2.304 15.992 2.856 16.016C2.808 17.072 2.784 18.128 2.76 19.184C2.76 20.216 4.368 20.216 4.368 19.184C4.392 18.152 4.392 17.12 4.44 16.064C6.36 16.112 8.28 16.112 10.2 16.04C11.232 15.992 11.232 14.384 10.2 14.432C8.304 14.504 6.432 14.528 4.536 14.48C4.632 13.184 4.8 11.912 5.064 10.664C5.472 8.648 6.408 4.256 8.832 3.704C12.24 2.936 12.96 8 13.176 10.256C13.464 13.232 13.32 16.256 13.176 19.256C13.128 20.288 14.712 20.288 14.76 19.256C14.976 14.96 16.464 1.712 9.048 2.072ZM12.12 14.48C11.088 14.48 11.088 16.064 12.12 16.064C13.152 16.064 13.152 14.48 12.12 14.48ZM25.5838 6.992C24.1918 6.392 22.3438 6.968 20.9038 8.264C19.5358 9.488 18.4318 11.792 17.5438 13.52C17.5918 11.432 17.7118 8.672 17.6878 6.536C17.7358 5.528 16.1038 5.552 16.1038 6.536C16.0798 10.064 15.9598 16.112 15.8398 19.616C15.8158 20.408 17.2078 20.768 17.3518 20C17.8318 17.36 18.5758 15.008 19.5598 13.064C20.2078 11.84 20.9278 10.376 21.9118 9.392C23.1118 8.192 25.5358 7.52 25.8718 9.752C25.9678 10.352 25.9198 11.096 25.8958 11.744C25.8478 13.88 25.7998 15.992 25.7278 18.152C25.7038 19.184 27.3118 19.16 27.3598 18.152C27.3838 16.448 27.4318 14.744 27.4798 12.992C27.5278 10.832 27.7918 7.928 25.5838 6.992ZM41.8406 17.312C41.5766 17.936 41.3606 18.68 40.6646 18.848C39.6326 19.112 39.2486 17.864 39.0806 17.048C38.5046 14.552 39.2006 11.6 39.6806 9.176C39.8246 8.24 38.4566 7.784 38.1686 8.624H38.1446C38.0966 8.552 38.0246 8.456 37.9286 8.36C33.4406 4.616 26.7446 11.552 28.5446 16.376C29.5766 19.064 32.6726 19.4 34.8566 17.864C35.8406 17.192 36.5846 16.352 37.1606 15.32C37.1606 17.264 37.5686 18.992 38.9126 20.024C40.9286 21.56 42.6806 19.496 43.3766 17.768C43.7606 16.76 42.2006 16.376 41.8406 17.312ZM30.1766 16.112C29.2886 14.504 30.1526 12.272 31.2326 11.024C32.4326 9.68 35.1206 8.072 36.8006 9.488C37.0406 9.704 37.2806 9.752 37.5446 9.68C37.1606 11.312 36.7526 12.92 35.8886 14.36C34.8566 16.064 31.7606 18.848 30.1766 16.112ZM53.4726 7.136C51.6486 7.04 50.4726 8.96 49.7286 10.304C49.6566 10.496 49.5606 10.688 49.4646 10.88C49.0566 8.816 48.1446 7.304 46.2966 8.12C44.8806 8.768 43.9686 10.04 43.3686 11.528C43.3446 10.928 43.2966 10.232 43.2486 9.608C43.2246 8.6 41.6166 8.576 41.6646 9.608C41.7846 12.32 41.9526 14.984 42.0966 17.648C42.1446 18.728 43.5846 18.704 43.7046 17.648C43.9686 15.272 44.3046 12.608 45.8646 10.64C46.2246 10.184 46.8006 9.224 47.4486 9.872C47.8806 10.28 47.9766 11.528 48.0486 12.104C48.2646 13.544 48.2166 15.008 48.1686 16.472C48.1446 17.504 49.7766 17.504 49.7766 16.472C49.8246 15.08 50.0646 13.736 50.5206 12.44C50.9046 11.504 52.2966 8.12 53.8086 8.864C54.6246 9.248 54.9846 10.352 55.1046 11.624C55.2726 13.616 54.3606 18.608 54.2406 19.664C54.1206 20.672 55.7526 20.672 55.8726 19.664C55.9926 18.416 56.8326 13.448 56.5926 11.288C56.3526 9.128 55.5606 7.232 53.4726 7.136ZM68.7253 19.808C67.9333 19.88 67.1893 19.928 66.4213 20C66.7813 16.712 67.0213 13.376 67.0933 10.064C67.1173 9.104 67.1173 8.264 67.2853 7.376C67.4293 6.536 66.3253 6.08 65.8933 6.632C65.4373 7.304 65.4373 8.312 65.2213 9.08C64.6453 11.072 63.7333 12.992 62.1733 14.384C61.3573 15.08 60.1093 15.752 59.2693 14.552C58.8613 14.048 58.8133 13.04 58.7653 12.464C58.6933 10.712 59.1013 8.984 59.5093 7.256C59.7253 6.296 58.1893 5.84 57.9733 6.872C57.3013 9.56 55.7173 17.408 60.8533 16.76C62.8693 16.544 64.3573 14.936 65.3653 13.016C65.3173 13.88 65.2693 14.792 65.2213 15.656C65.1253 17.12 65.0293 18.632 64.8853 20.12C64.0453 20.192 63.1813 20.288 62.3653 20.432C60.8053 20.696 59.3653 21.392 58.5493 22.856C57.2773 25.112 58.5013 28.64 61.3813 28.712C65.1253 28.808 65.8693 24.464 66.2053 21.632C67.0693 21.56 67.8613 21.512 68.7253 21.44C69.7093 21.344 69.7333 19.712 68.7253 19.808ZM64.1893 24.224C63.8293 25.544 62.6053 27.8 60.8293 26.96C59.4373 26.312 59.3893 24.464 60.1333 23.336C61.1173 21.992 62.8453 21.968 64.3333 21.824C64.4533 21.824 64.5253 21.8 64.6453 21.8C64.5013 22.64 64.4053 23.408 64.1893 24.224ZM77.7323 6.992C76.3403 6.392 74.4922 6.968 73.0523 8.264C71.6842 9.488 70.5803 11.792 69.6923 13.52C69.7402 11.432 69.8603 8.672 69.8363 6.536C69.8843 5.528 68.2523 5.552 68.2523 6.536C68.2283 10.064 68.1082 16.112 67.9882 19.616C67.9642 20.408 69.3563 20.768 69.5003 20C69.9803 17.36 70.7243 15.008 71.7083 13.064C72.3563 11.84 73.0763 10.376 74.0603 9.392C75.2603 8.192 77.6843 7.52 78.0203 9.752C78.1163 10.352 78.0683 11.096 78.0443 11.744C77.9963 13.88 77.9483 15.992 77.8763 18.152C77.8523 19.184 79.4603 19.16 79.5083 18.152C79.5323 16.448 79.5803 14.744 79.6283 12.992C79.6763 10.832 79.9403 7.928 77.7323 6.992ZM83.3571 18.752C84.3891 18.752 84.3891 17.168 83.3571 17.168C82.2771 17.168 82.2531 18.752 83.3571 18.752ZM86.8545 21.296C87.0945 22.304 88.6545 21.872 88.4145 20.864C88.0065 19.352 87.7665 17.84 87.6705 16.28C88.1265 16.976 88.7265 17.576 89.3025 17.96C91.4145 19.232 93.4545 17.264 94.7985 15.872C95.5185 15.104 94.3665 13.976 93.6465 14.744C92.6865 15.776 91.0785 17.648 89.6865 16.16C89.0145 15.416 88.4145 14.408 88.0305 13.448C89.4705 12.248 90.9105 11.12 92.3745 10.04C93.2145 9.392 92.3985 7.976 91.5825 8.624C90.2625 9.632 88.9185 10.64 87.6225 11.696C87.7665 8.288 88.3905 4.832 88.9425 1.448C89.1345 0.439999 87.5985 0.00799847 87.3825 0.991999C86.1825 8.264 85.2465 14.888 86.8545 21.296ZM95.4724 7.232C96.7684 6.584 98.1124 6.08 99.5284 5.816C100.728 5.624 102.12 5.744 101.352 7.328C101.088 7.832 100.848 8.264 100.536 8.648C99.1444 10.832 97.2964 12.608 95.6644 14.576C94.9204 15.512 93.0724 17.408 94.7524 18.392C95.5924 18.896 96.9604 18.56 97.8484 18.512C99.3604 18.44 100.896 18.32 102.408 18.224C103.416 18.128 103.416 16.52 102.408 16.592C100.776 16.712 99.1444 16.832 97.5124 16.904C97.1284 16.928 96.7204 16.952 96.3124 16.976C95.6404 17.024 95.4724 17.024 95.8324 16.976C95.7364 16.736 97.0564 15.368 97.3204 15.128C98.9764 13.16 100.872 11.312 102.216 9.056C103.128 7.568 104.208 5.144 101.952 4.256C99.7924 3.392 96.6004 4.904 94.6804 5.84C93.7684 6.368 94.5604 7.736 95.4724 7.232Z" fill="white"/>
</svg>
