<?xml version="1.0" encoding="utf-8"?>
<!-- Generator: Adobe Illustrator 21.1.0, SVG Export Plug-In . SVG Version: 6.00 Build 0)  -->
<svg version="1.1" id="Capa_1" xmlns="http://www.w3.org/2000/svg" xmlns:xlink="http://www.w3.org/1999/xlink" x="0px" y="0px"
	 viewBox="0 0 612 612" style="enable-background:new 0 0 612 612;" xml:space="preserve">
<style type="text/css">
	.st0{fill:#F9476C;}
</style>
<g>
	<g id="_x31_0_1_">
		<g>
			<path class="st0" d="M559.8,256.6L322,9.1c-3.5-4.1-8.5-6.9-14.2-7L51.5,10c-5.7-0.1-10.7,2.3-14.3,6.1c-4,3.4-6.6,8.4-6.7,14.1
				L12.4,286c-0.1,5.3,2,10.1,5.3,13.6l-0.3,0.3l238.7,248.5c29.3,30.5,77.8,31.5,108.3,2.2l193.2-185.7
				C588.1,335.5,589.1,287.1,559.8,256.6z M337.9,522.9c-15.2,14.6-39.5,14.2-54.1-1.1L51.5,280.1L68,48.2l231.6-7.1l232.6,242.1
				c14.7,15.3,14.2,39.5-1.1,54.1L337.9,522.9L337.9,522.9L337.9,522.9z"/>
		</g>
	</g>
</g>
</svg>
